<?xml version="1.0" encoding="UTF-8"?>
<svg version="1.1" xmlns="http://www.w3.org/2000/svg" width="328" height="152">
<path d="M0 0 C108.24 0 216.48 0 328 0 C328 50.16 328 100.32 328 152 C219.76 152 111.52 152 0 152 C0 101.84 0 51.68 0 0 Z " fill="#FDFEFE" transform="translate(0,0)"/>
<path d="M0 0 C0.70125 0.53625 1.4025 1.0725 2.125 1.625 C3.115 2.285 4.105 2.945 5.125 3.625 C5.455 2.635 5.785 1.645 6.125 0.625 C10.46615095 -1.95255838 15.22923955 -1.92956402 20.125 -1.375 C26.85295855 1.08329255 30.85852612 6.07858395 35.125 11.625 C35.7025 12.24375 36.28 12.8625 36.875 13.5 C38.66838396 16.54875273 38.3247341 19.16294226 38.125 22.625 C37.465 22.625 36.805 22.625 36.125 22.625 C35.63 24.11 35.63 24.11 35.125 25.625 C28.94896583 29.58698418 24.5822705 30.78755268 17.1875 30.9375 C15.98222656 30.97488281 14.77695313 31.01226562 13.53515625 31.05078125 C9.5299105 30.55069902 8.09651853 29.24510416 5.125 26.625 C4.135 26.625 3.145 26.625 2.125 26.625 C1.465 27.615 0.805 28.605 0.125 29.625 C-6.73871404 31.91290468 -15.30208364 31.70597209 -22 28.9375 C-25.52244687 27.06804496 -27.92349325 25.18862103 -29.875 21.625 C-30.50243882 17.93879691 -30.13899472 16.14151141 -28.4375 12.8125 C-21.58011965 3.57952717 -12.10944122 -5.79147189 0 0 Z " fill="#3BAB59" transform="translate(88.875,51.375)"/>
<path d="M0 0 C6.89736988 4.79045625 17.02372272 13.43613181 19 22 C19.6496 28.1712 19.6496 28.1712 17.1875 31.3125 C11.29262233 35.85997706 6.62088884 35.37232004 -0.65917969 35.37060547 C-2.72936653 35.37495663 -4.79738097 35.41121801 -6.8671875 35.44921875 C-19.4299036 35.48609561 -19.4299036 35.48609561 -25 31 C-26.54194738 27.91610525 -26.7564115 25.30779951 -26 22 C-23.99903713 18.4014097 -21.73825792 15.07899137 -19 12 C-18.34 12 -17.68 12 -17 12 C-16.79375 11.46375 -16.5875 10.9275 -16.375 10.375 C-12.78404888 4.17244806 -7.48597028 -0.80634905 0 0 Z " fill="#23C7EE" transform="translate(96,10)"/>
<path d="M0 0 C6 0 6 0 8.1171875 1.53125 C8.98730469 2.50578125 8.98730469 2.50578125 9.875 3.5 C10.47054687 4.1496875 11.06609375 4.799375 11.6796875 5.46875 C12.11539063 5.9740625 12.55109375 6.479375 13 7 C15.33524782 4.74259377 17.18705073 2.7194239 19 0 C22.89621473 -0.50506487 25.08457137 -0.66801549 28.3125 1.6875 C30.04279365 4.05864315 31.07426773 6.22280319 32 9 C32.27972656 8.43410156 32.55945313 7.86820312 32.84765625 7.28515625 C35.03883879 3.27620812 36.09865446 1.33800458 40.5 -0.3125 C44 0 44 0 46.9375 1.9375 C49.05974129 5.08870676 49.73187594 7.11822679 49.5 10.9296875 C48.58054613 14.73680117 46.56222544 17.07174236 44 20 C43.34 20 42.68 20 42 20 C42 20.66 42 21.32 42 22 C35.375 23.25 35.375 23.25 32 21 C31.59156077 18.28796348 31.86663133 15.7562858 32 13 C31.34 13 30.68 13 30 13 C29.566875 13.8971875 29.566875 13.8971875 29.125 14.8125 C28 17 28 17 26 20 C25.34 20 24.68 20 24 20 C24 20.66 24 21.32 24 22 C17.375 23.25 17.375 23.25 14 21 C13.67 20.01 13.34 19.02 13 18 C12.401875 18.639375 11.80375 19.27875 11.1875 19.9375 C8.0097497 22.93366457 5.50484674 23.12325865 1.3125 23.0625 C0.10013672 23.04896484 0.10013672 23.04896484 -1.13671875 23.03515625 C-1.75160156 23.02355469 -2.36648437 23.01195313 -3 23 C-3 21.35 -3 19.7 -3 18 C-2.34 18 -1.68 18 -1 18 C-0.505 9.09 -0.505 9.09 0 0 Z " fill="#32CEF1" transform="translate(138,62)"/>
<path d="M0 0 C9.71402263 0.43173434 17.61679954 6.12465985 24.44140625 12.6796875 C25.91389865 14.21545692 25.91389865 14.21545692 28 14 C29.156932 12.843068 30.3104114 11.68245739 31.4453125 10.50390625 C36.31022093 5.79790186 41.8405763 1.18486328 48.8125 0.875 C49.534375 0.91625 50.25625 0.9575 51 1 C49.33333333 2.33333333 47.66666667 3.66666667 46 5 C45.113125 5.7425 44.22625 6.485 43.3125 7.25 C41 9 41 9 39 9 C38.71382812 9.58394531 38.42765625 10.16789062 38.1328125 10.76953125 C37.43628009 12.14097955 36.70809037 13.49752481 35.9296875 14.82421875 C32.28203675 21.26840174 32.32926263 26.46338476 33.6875 33.625 C35.67694317 38.740711 37.9868565 42.83685042 42.8125 45.625 C43.534375 46.07875 44.25625 46.5325 45 47 C45 48.65 45 50.3 45 52 C33.12 52 21.24 52 9 52 C10.11367127 46.43164363 10.11367127 46.43164363 13.375 43.5625 C18.30964132 38.82038062 20.15546326 35.15108641 20.4375 28.25 C20.23691852 21.51380521 18.9394789 15.46492979 14.4921875 10.22265625 C10.21647421 6.31485318 5.12855535 3.62823925 0 1 C0 0.67 0 0.34 0 0 Z " fill="#15171F" transform="translate(66,85)"/>
<path d="M0 0 C1.85332743 1.47176002 3.5380099 2.93345831 5.125 4.6875 C4.135 5.3475 3.145 6.0075 2.125 6.6875 C0.6100052 11.23248441 0.26810241 17.12966047 2.125 21.6875 C3.60390069 23.41776102 3.60390069 23.41776102 5.125 24.6875 C1.47790732 28.53173282 -0.51155376 30.50219123 -5.9140625 30.92578125 C-14.91998018 31.11217824 -21.66725143 30.58736452 -28.4375 24.3125 C-30.22768921 21.04345883 -30.4758473 19.36768969 -29.875 15.6875 C-26.64136276 9.36081844 -20.74528167 2.61358401 -14.37109375 -0.55859375 C-9.44395333 -2.04675979 -4.70596486 -2.14837526 0 0 Z " fill="#ABC83B" transform="translate(88.875,51.3125)"/>
<path d="M0 0 C5.21578509 1.04315702 6.04181087 1.5527484 9.5 5.1875 C10.66208984 6.40759766 10.66208984 6.40759766 11.84765625 7.65234375 C12.55792969 8.42707031 13.26820312 9.20179687 14 10 C14.53496094 10.57878906 15.06992188 11.15757813 15.62109375 11.75390625 C19.25736651 15.88652485 20.80098505 19.10935801 21.375 24.5625 C21 28 21 28 19.125 30.375 C12.59470761 35.368753 11.75042816 33 0 33 C0 22.11 0 11.22 0 0 Z " fill="#0978BF" transform="translate(94,11)"/>
<path d="M0 0 C1.32 0 2.64 0 4 0 C4.33 3.3 4.66 6.6 5 10 C6.32 10.33 7.64 10.66 9 11 C9 7.37 9 3.74 9 0 C12.72398088 0 15.4730523 0.11826308 19 1 C20.66342837 2.66342837 20.36048097 4.7825709 20.5625 7.0625 C20.68818359 8.44115234 20.68818359 8.44115234 20.81640625 9.84765625 C20.87699219 10.55792969 20.93757813 11.26820312 21 12 C21.20496094 11.37351562 21.40992188 10.74703125 21.62109375 10.1015625 C21.89050781 9.28429687 22.15992188 8.46703125 22.4375 7.625 C22.70433594 6.81289062 22.97117187 6.00078125 23.24609375 5.1640625 C24 3 24 3 25 1 C26.32 1 27.64 1 29 1 C29.1089913 7.64846905 29.18922687 14.43681398 28 21 C26 23 26 23 23.94140625 23.08203125 C23.15636719 22.99308594 22.37132812 22.90414062 21.5625 22.8125 C20.78003906 22.73644531 19.99757813 22.66039063 19.19140625 22.58203125 C16.60798701 21.89588247 15.58513548 21.13560053 14 19 C14 18.01 14 17.02 14 16 C13.34 16 12.68 16 12 16 C11.34 17.98 10.68 19.96 10 22 C9.34 22 8.68 22 8 22 C7.938125 21.05125 7.87625 20.1025 7.8125 19.125 C7.4103125 17.578125 7.4103125 17.578125 7 16 C4.53744315 14.54708727 4.53744315 14.54708727 2 14 C1.67 16.31 1.34 18.62 1 21 C0.01 21.33 -0.98 21.66 -2 22 C-2.10792492 14.91293037 -2.03581937 8.02055353 -1 1 C-0.67 0.67 -0.34 0.34 0 0 Z " fill="#80E1F6" transform="translate(245,62)"/>
<path d="M0 0 C6 0 6 0 8.1171875 1.53125 C8.98730469 2.50578125 8.98730469 2.50578125 9.875 3.5 C10.47054687 4.1496875 11.06609375 4.799375 11.6796875 5.46875 C12.11539063 5.9740625 12.55109375 6.479375 13 7 C13.99 6.67 14.98 6.34 16 6 C15.98839844 6.98742187 15.97679687 7.97484375 15.96484375 8.9921875 C15.95582031 10.27351563 15.94679687 11.55484375 15.9375 12.875 C15.92589844 14.15117188 15.91429687 15.42734375 15.90234375 16.7421875 C15.76823431 19.88664652 15.76823431 19.88664652 17 22 C16.01 21.67 15.02 21.34 14 21 C13.67 20.01 13.34 19.02 13 18 C12.401875 18.639375 11.80375 19.27875 11.1875 19.9375 C8.0097497 22.93366457 5.50484674 23.12325865 1.3125 23.0625 C0.10013672 23.04896484 0.10013672 23.04896484 -1.13671875 23.03515625 C-1.75160156 23.02355469 -2.36648437 23.01195313 -3 23 C-3 21.35 -3 19.7 -3 18 C-2.34 18 -1.68 18 -1 18 C-0.505 9.09 -0.505 9.09 0 0 Z " fill="#40D2F2" transform="translate(138,62)"/>
<path d="M0 0 C4.29993004 0.43728102 5.94491848 1.03247877 8.6875 4.375 C8.4375 7.8125 8.4375 7.8125 7.6875 11.375 C7.935 12.2 8.1825 13.025 8.4375 13.875 C8.79184574 17.41845735 7.55816306 19.21645291 5.4296875 21.98828125 C2.62454472 24.22107427 0.03790717 23.94787465 -3.421875 23.71875 C-5.3125 23.375 -5.3125 23.375 -6.3125 22.375 C-6.64005635 15.72753296 -6.76169589 8.89638152 -5.3125 2.375 C-3.3125 0.375 -3.3125 0.375 0 0 Z " fill="#3ED1F2" transform="translate(283.3125,61.625)"/>
<path d="M0 0 C6 0 6 0 9.25 2.25 C12.85702135 5.85702135 13.79727792 7.40718365 14.4375 12.4375 C14 16 14 16 11.75 18.875 C6.81468546 22.68865214 4.62804832 22 -2 22 C-1.34 14.74 -0.68 7.48 0 0 Z " fill="#3ED1F2" transform="translate(190,62)"/>
<path d="M0 0 C1.21816406 0.03480469 1.21816406 0.03480469 2.4609375 0.0703125 C3.68683594 0.09738281 3.68683594 0.09738281 4.9375 0.125 C5.87722656 0.15980469 5.87722656 0.15980469 6.8359375 0.1953125 C7.1659375 1.5153125 7.4959375 2.8353125 7.8359375 4.1953125 C5.5259375 4.5253125 3.2159375 4.8553125 0.8359375 5.1953125 C0.8359375 6.5153125 0.8359375 7.8353125 0.8359375 9.1953125 C2.8159375 9.1953125 4.7959375 9.1953125 6.8359375 9.1953125 C7.1659375 10.5153125 7.4959375 11.8353125 7.8359375 13.1953125 C5.12714415 14.54970918 2.82660482 14.26032701 -0.1640625 14.1953125 C-0.1640625 15.5153125 -0.1640625 16.8353125 -0.1640625 18.1953125 C2.3109375 19.1853125 2.3109375 19.1853125 4.8359375 20.1953125 C4.8359375 21.1853125 4.8359375 22.1753125 4.8359375 23.1953125 C3.35686858 23.22220466 1.87766267 23.24165871 0.3984375 23.2578125 C-0.83712891 23.27521484 -0.83712891 23.27521484 -2.09765625 23.29296875 C-4.1640625 23.1953125 -4.1640625 23.1953125 -5.1640625 22.1953125 C-5.49161885 15.54784546 -5.61325839 8.71669402 -4.1640625 2.1953125 C-2.1640625 0.1953125 -2.1640625 0.1953125 0 0 Z " fill="#3FD2F2" transform="translate(229.1640625,61.8046875)"/>
<path d="M0 0 C0.99 0 1.98 0 3 0 C3.1089913 6.64846905 3.18922687 13.43681398 2 20 C0 22 0 22 -2.09375 22.046875 C-2.8878125 21.94890625 -3.681875 21.8509375 -4.5 21.75 C-5.2940625 21.66234375 -6.088125 21.5746875 -6.90625 21.484375 C-9 21 -9 21 -11 19 C-11.14517744 16.0906442 -11.18630796 13.280054 -11.125 10.375 C-11.11597656 9.57320312 -11.10695313 8.77140625 -11.09765625 7.9453125 C-11.07406223 5.96341477 -11.03819065 3.98167019 -11 2 C-9.68 2 -8.36 2 -7 2 C-7 5.96 -7 9.92 -7 14 C-6.01 14 -5.02 14 -4 14 C-3.5196682 12.41701974 -3.04078388 10.83360022 -2.5625 9.25 C-2.16224609 7.92742187 -2.16224609 7.92742187 -1.75390625 6.578125 C-1.11531506 4.39434165 -0.53224167 2.21164502 0 0 Z " fill="#26CCF0" transform="translate(271,63)"/>
<path d="M0 0 C1.2065625 0.0309375 1.2065625 0.0309375 2.4375 0.0625 C2.78406486 4.68336485 1.93355732 7.9415505 0.19140625 12.1328125 C-0.57269802 14.0886027 -1.09446868 16.01770295 -1.5625 18.0625 C-0.94761719 18.03929688 -0.33273438 18.01609375 0.30078125 17.9921875 C1.10902344 17.97414063 1.91726562 17.95609375 2.75 17.9375 C3.95076172 17.90269531 3.95076172 17.90269531 5.17578125 17.8671875 C7.4375 18.0625 7.4375 18.0625 10.4375 20.0625 C10.4375 21.0525 10.4375 22.0425 10.4375 23.0625 C4.65158489 23.16727512 -0.85559366 23.05500545 -6.5625 22.0625 C-6.99215805 14.75831313 -5.55269732 8.0849061 -3.5625 1.0625 C-2.5625 0.0625 -2.5625 0.0625 0 0 Z " fill="#45D3F2" transform="translate(212.5625,61.9375)"/>
<path d="M0 0 C0.33 0 0.66 0 1 0 C1.33 3.3 1.66 6.6 2 10 C3.32 10.33 4.64 10.66 6 11 C8.18331689 9.23863645 8.18331689 9.23863645 8.1953125 7.0546875 C8.17210937 6.33539063 8.14890625 5.61609375 8.125 4.875 C8.08375 3.59625 8.0425 2.3175 8 1 C8.99 1 9.98 1 11 1 C12.56935594 4.13871188 12.35201103 6.53855822 12 10 C9.91052231 12.66988816 8.25444343 14.45640785 5.125 15.8125 C2.07703324 16.08143824 -0.94276896 16.0587929 -4 16 C-3.39891424 10.34979382 -1.92471317 5.33835539 0 0 Z " fill="#23CBF0" transform="translate(192,68)"/>
<path d="M0 0 C0.66 0.33 1.32 0.66 2 1 C1.55245138 5.81114769 0.74756687 8.81456816 -3 12 C-6.04934078 12.46995094 -8.94674922 12.43352445 -12 12 C-13 11 -13 11 -13.0625 7.4375 C-13.041875 6.303125 -13.02125 5.16875 -13 4 C-11.515 4.99 -11.515 4.99 -10 6 C-9.34 5.01 -8.68 4.02 -8 3 C-4.9375 2.75 -4.9375 2.75 -2 3 C-1.67 3.33 -1.34 3.66 -1 4 C-0.67 2.68 -0.34 1.36 0 0 Z " fill="#32CEF1" transform="translate(290,73)"/>
<path d="M0 0 C2 1.375 2 1.375 4 4 C4.72944121 9.10608847 4.61423592 13.48260034 2 18 C1.01 17.67 0.02 17.34 -1 17 C-2.4241906 14.15161879 -2.16995508 11.67212092 -2.1875 8.5 C-2.20876953 6.75203125 -2.20876953 6.75203125 -2.23046875 4.96875 C-2 2 -2 2 0 0 Z " fill="#3AA255" transform="translate(93,57)"/>
<path d="M0 0 C3.95679828 -0.46009282 5.54625856 -0.33274372 8.8125 2.0625 C11.39337688 5.52824896 11.92049214 7.70657534 12 12 C11.01 13.485 11.01 13.485 10 15 C9.67 12.69 9.34 10.38 9 8 C7.02 7.34 5.04 6.68 3 6 C3 7.98 3 9.96 3 12 C0.97649676 8.96474514 0.67875982 7.80573798 0.375 4.3125 C0.30023438 3.50425781 0.22546875 2.69601563 0.1484375 1.86328125 C0.09945312 1.24839844 0.05046875 0.63351563 0 0 Z " fill="#2DCDF1" transform="translate(138,62)"/>
<path d="M0 0 C0.99 0 1.98 0 3 0 C3.55353075 14.78132118 3.55353075 14.78132118 0 21 C-0.66 21 -1.32 21 -2 21 C-2 18.36 -2 15.72 -2 13 C-2.99 12.67 -3.98 12.34 -5 12 C-5 11.67 -5 11.34 -5 11 C-3.35 11 -1.7 11 0 11 C0 7.37 0 3.74 0 0 Z " fill="#31CEF1" transform="translate(255,63)"/>
<path d="M0 0 C1.61949011 2.57213134 2.04408751 3.67669159 1.625 6.75 C1.41875 7.4925 1.2125 8.235 1 9 C0.67 8.34 0.34 7.68 0 7 C-2.93443402 7.26656572 -2.93443402 7.26656572 -6 8 C-6.99 9.485 -6.99 9.485 -8 11 C-8.66 11 -9.32 11 -10 11 C-9.88637738 9.5199159 -9.75877092 8.04089926 -9.625 6.5625 C-9.55539062 5.73878906 -9.48578125 4.91507812 -9.4140625 4.06640625 C-9.27742188 3.38449219 -9.14078125 2.70257813 -9 2 C-8.34 1.67 -7.68 1.34 -7 1 C-7 1.66 -7 2.32 -7 3 C-4.69 2.01 -2.38 1.02 0 0 Z " fill="#30CEF1" transform="translate(288,69)"/>
<path d="M0 0 C0.99 0 1.98 0 3 0 C4.99846148 2.59059822 5.93321093 4.42561396 6.3125 7.6875 C6 10 6 10 4 12 C2.68 11.67 1.36 11.34 0 11 C0 7.37 0 3.74 0 0 Z " fill="#DAF6FC" transform="translate(194,68)"/>
<path d="M0 0 C2.475 0.99 2.475 0.99 5 2 C5.38063221 4.3260857 5.71269945 6.66055264 6 9 C5.67 9.33 5.34 9.66 5 10 C3.35 10 1.7 10 0 10 C0 6.7 0 3.4 0 0 Z " fill="#E0F7FC" transform="translate(142,68)"/>
<path d="M0 0 C0.99 0.33 1.98 0.66 3 1 C-1.625 6.875 -1.625 6.875 -5 8 C-5 12.95 -5 17.9 -5 23 C-7 22 -7 22 -7.625 20.4375 C-8.38636239 15.48864449 -8.71017584 11.54947456 -6.625 7 C-6.08875 6.34 -5.5525 5.68 -5 5 C-4.34 5 -3.68 5 -3 5 C-2.814375 4.0409375 -2.814375 4.0409375 -2.625 3.0625 C-2.41875 2.381875 -2.2125 1.70125 -2 1 C-1.34 0.67 -0.68 0.34 0 0 Z " fill="#61B553" transform="translate(97,51)"/>
<path d="M0 0 C2.125 0.375 2.125 0.375 4 1 C3.5020163 4.73487777 3.12508244 6.81237635 1 10 C0.01 10 -0.98 10 -2 10 C-2.1953125 3.9453125 -2.1953125 3.9453125 -2 2 C-1.34 1.34 -0.68 0.68 0 0 Z " fill="#D8F5FC" transform="translate(160,69)"/>
<path d="M0 0 C0.66 0 1.32 0 2 0 C2.02715383 1.74991334 2.04646551 3.49994945 2.0625 5.25 C2.07410156 6.22453125 2.08570313 7.1990625 2.09765625 8.203125 C2.01195577 10.65758678 1.70706066 12.66168914 1 15 C0.34 15 -0.32 15 -1 15 C-1.33 15.99 -1.66 16.98 -2 18 C-1.85980308 15.18711295 -1.71312045 12.37483115 -1.5625 9.5625 C-1.52318359 8.76005859 -1.48386719 7.95761719 -1.44335938 7.13085938 C-1.11328125 1.11328125 -1.11328125 1.11328125 0 0 Z " fill="#23CBF0" transform="translate(246,63)"/>
<path d="M0 0 C2.125 0.375 2.125 0.375 4 1 C4 2.65 4 4.3 4 6 C3.34 6 2.68 6 2 6 C1.34 7.32 0.68 8.64 0 10 C-0.66 10 -1.32 10 -2 10 C-2.1953125 3.9453125 -2.1953125 3.9453125 -2 2 C-1.34 1.34 -0.68 0.68 0 0 Z " fill="#B8EEFA" transform="translate(178,69)"/>
<path d="M0 0 C0.99 0 1.98 0 3 0 C4.54586876 3.09173752 4.29359521 5.59429552 4 9 C2 11.4375 2 11.4375 0 13 C0 12.34 0 11.68 0 11 C-0.66 10.67 -1.32 10.34 -2 10 C-1.34 9.34 -0.68 8.68 0 8 C0.24212873 6.01871492 0.24212873 6.01871492 0.125 3.875 C0.063125 1.956875 0.063125 1.956875 0 0 Z " fill="#43D2F2" transform="translate(200,69)"/>
<path d="M0 0 C0.99 0.33 1.98 0.66 3 1 C3.66 0.67 4.32 0.34 5 0 C4.98839844 0.98742187 4.97679687 1.97484375 4.96484375 2.9921875 C4.95582031 4.27351563 4.94679687 5.55484375 4.9375 6.875 C4.92589844 8.15117188 4.91429687 9.42734375 4.90234375 10.7421875 C4.76823431 13.88664652 4.76823431 13.88664652 6 16 C3 15 3 15 1 12 C0.5859375 9.08203125 0.5859375 9.08203125 0.375 5.8125 C0.30023438 4.72582031 0.22546875 3.63914062 0.1484375 2.51953125 C0.09945312 1.68808594 0.05046875 0.85664062 0 0 Z " fill="#7DE0F6" transform="translate(149,68)"/>
<path d="M0 0 C-3.54039134 2.9156164 -7.1626772 5.50127818 -11 8 C-11 7.34 -11 6.68 -11 6 C-11.99 5.67 -12.98 5.34 -14 5 C-9.10663008 1.62901183 -5.97562839 -0.16150347 0 0 Z " fill="#3D3F46" transform="translate(117,86)"/>
<path d="M0 0 C0.66 0 1.32 0 2 0 C3.26237731 2.52475462 3.09856404 4.31200466 3.0625 7.125 C3.05347656 8.03507812 3.04445313 8.94515625 3.03515625 9.8828125 C3.02355469 10.58148438 3.01195313 11.28015625 3 12 C2.34 12 1.68 12 1 12 C0.67 12.66 0.34 13.32 0 14 C0 9.38 0 4.76 0 0 Z " fill="#2A8941" transform="translate(94,59)"/>
<path d="M0 0 C-1.4615836 3.36997254 -3.3380888 5.60745127 -5.9375 8.1875 C-6.97197266 9.22970703 -6.97197266 9.22970703 -8.02734375 10.29296875 C-10 12 -10 12 -13 13 C-11.46781315 9.36938333 -9.2816856 7.0136227 -6.5 4.25 C-5.7059375 3.45078125 -4.911875 2.6515625 -4.09375 1.828125 C-2 0 -2 0 0 0 Z " fill="#BBD360" transform="translate(74,52)"/>
<path d="M0 0 C0.99 0.33 1.98 0.66 3 1 C1.23519919 2.8187336 -0.53630765 4.62994991 -2.3125 6.4375 C-3.06176758 7.2119043 -3.06176758 7.2119043 -3.82617188 8.00195312 C-6.19869635 10.40590176 -7.74970379 11.91656793 -11 13 C-10.67 12.01 -10.34 11.02 -10 10 C-9.34 10 -8.68 10 -8 10 C-7.79375 9.46375 -7.5875 8.9275 -7.375 8.375 C-5.42003056 4.9982346 -2.81776305 2.69525161 0 0 Z " fill="#43D2F2" transform="translate(87,12)"/>
<path d="M0 0 C1.32 0.33 2.64 0.66 4 1 C3.01 1 2.02 1 1 1 C1 4.63 1 8.26 1 12 C-0.32 12.33 -1.64 12.66 -3 13 C-2.34 13.33 -1.68 13.66 -1 14 C-1.33 14.66 -1.66 15.32 -2 16 C-4.475 15.01 -4.475 15.01 -7 14 C-6.67 12.68 -6.34 11.36 -6 10 C-3.03 10.495 -3.03 10.495 0 11 C0 7.37 0 3.74 0 0 Z " fill="#54D6F3" transform="translate(254,62)"/>
<path d="M0 0 C0.99 0 1.98 0 3 0 C2.25 7.625 2.25 7.625 0 11 C-0.66 11 -1.32 11 -2 11 C-1.85957123 9.35369672 -1.71250671 7.70795821 -1.5625 6.0625 C-1.48128906 5.14597656 -1.40007812 4.22945313 -1.31640625 3.28515625 C-1 1 -1 1 0 0 Z " fill="#22CBF0" transform="translate(211,63)"/>
<path d="M0 0 C0.33 0.66 0.66 1.32 1 2 C1.66 2 2.32 2 3 2 C2.67 4.31 2.34 6.62 2 9 C7.445 8.505 7.445 8.505 13 8 C11 10 11 10 8.6171875 10.1953125 C7.71226562 10.17210938 6.80734375 10.14890625 5.875 10.125 C4.50988281 10.09792969 4.50988281 10.09792969 3.1171875 10.0703125 C2.41851562 10.04710938 1.71984375 10.02390625 1 10 C1 8.02 1 6.04 1 4 C0.01 4.33 -0.98 4.66 -2 5 C-1.34 3.35 -0.68 1.7 0 0 Z " fill="#ACEBF9" transform="translate(186,75)"/>
<path d="M0 0 C0.33 0 0.66 0 1 0 C2.10228696 4.40914783 2.07654536 8.48382401 2 13 C4.31 13 6.62 13 9 13 C9 13.33 9 13.66 9 14 C6.36 14 3.72 14 1 14 C0.67 13.01 0.34 12.02 0 11 C-0.66 10.34 -1.32 9.68 -2 9 C-1.7578125 6.8359375 -1.7578125 6.8359375 -1.125 4.375 C-0.92132813 3.55773437 -0.71765625 2.74046875 -0.5078125 1.8984375 C-0.34023437 1.27195312 -0.17265625 0.64546875 0 0 Z " fill="#B0ECF9" transform="translate(204,71)"/>
<path d="M0 0 C0.33 4.29 0.66 8.58 1 13 C0.01 12.67 -0.98 12.34 -2 12 C-3.47666292 8.50970582 -3.07164685 4.72563614 -3 1 C-1 0 -1 0 0 0 Z " fill="#E4F8FD" transform="translate(277,72)"/>
<path d="M0 0 C0.66 0 1.32 0 2 0 C0.43646684 3.83776322 -1.83471431 6.34999338 -5 9 C-7.8125 9.3125 -7.8125 9.3125 -10 9 C-9.67 8.34 -9.34 7.68 -9 7 C-8.34 7 -7.68 7 -7 7 C-5.29115995 5.37660195 -3.62553283 3.70680947 -2 2 C-1.34 1.34 -0.68 0.68 0 0 Z " fill="#3E4048" transform="translate(101,92)"/>
<path d="M0 0 C0.33 0 0.66 0 1 0 C1 4.62 1 9.24 1 14 C0.01 14 -0.98 14 -2 14 C-2 11.36 -2 8.72 -2 6 C-1.67 6 -1.34 6 -1 6 C-0.67 4.02 -0.34 2.04 0 0 Z " fill="#D7F5FC" transform="translate(189,63)"/>
<path d="M0 0 C4.97306516 0.49730652 8.63799813 1.55302334 13 4 C11.296875 5.1484375 11.296875 5.1484375 9 6 C6.640625 5.1015625 6.640625 5.1015625 4.25 3.625 C3.45078125 3.14289063 2.6515625 2.66078125 1.828125 2.1640625 C1.22484375 1.77992187 0.6215625 1.39578125 0 1 C0 0.67 0 0.34 0 0 Z " fill="#65666C" transform="translate(66,85)"/>
<path d="M0 0 C1.2065625 0.0309375 1.2065625 0.0309375 2.4375 0.0625 C2.1075 1.3825 1.7775 2.7025 1.4375 4.0625 C0.1175 4.3925 -1.2025 4.7225 -2.5625 5.0625 C-3.125 3.125 -3.125 3.125 -3.5625 1.0625 C-2.5625 0.0625 -2.5625 0.0625 0 0 Z " fill="#D7F5FC" transform="translate(284.5625,75.9375)"/>
<path d="M0 0 C0.99 0 1.98 0 3 0 C3.3367697 4.93928888 3.16130459 5.78492722 0 10 C0 6.7 0 3.4 0 0 Z " fill="#1DC9F0" transform="translate(255,63)"/>
<path d="M0 0 C1.60031344 3.20062687 0.03173691 5.72271806 -1 9 C-1.66 7.68 -2.32 6.36 -3 5 C-3.99 5.66 -4.98 6.32 -6 7 C-5.34 5.02 -4.68 3.04 -4 1 C-3.67 1.66 -3.34 2.32 -3 3 C-2.34 3 -1.68 3 -1 3 C-0.67 2.01 -0.34 1.02 0 0 Z " fill="#4BD4F3" transform="translate(212,71)"/>
<path d="M0 0 C1.61949011 2.57213134 2.04408751 3.67669159 1.625 6.75 C1.41875 7.4925 1.2125 8.235 1 9 C0.71125 8.360625 0.4225 7.72125 0.125 7.0625 C-0.82823451 4.84793921 -0.82823451 4.84793921 -3 4 C-2.01 2.68 -1.02 1.36 0 0 Z " fill="#1DC9F0" transform="translate(288,69)"/>
<path d="M0 0 C0.66 0 1.32 0 2 0 C1.6875 2.875 1.6875 2.875 1 6 C0.01 6.66 -0.98 7.32 -2 8 C-2.125 5.125 -2.125 5.125 -2 2 C-1.34 1.34 -0.68 0.68 0 0 Z " fill="#F5FCFE" transform="translate(179,71)"/>
<path d="M0 0 C0.99 0.33 1.98 0.66 3 1 C3 1.66 3 2.32 3 3 C2.34 3 1.68 3 1 3 C1.33 5.64 1.66 8.28 2 11 C0.47700477 8.06279492 -0.80100302 5.0831351 -2 2 C-1.34 2 -0.68 2 0 2 C0 1.34 0 0.68 0 0 Z " fill="#56D7F3" transform="translate(199,66)"/>
<path d="M0 0 C0.99 0 1.98 0 3 0 C3.25 6.625 3.25 6.625 1 10 C0.67 6.7 0.34 3.4 0 0 Z " fill="#22CAF0" transform="translate(200,69)"/>
<path d="M0 0 C-2.1875 2.0625 -2.1875 2.0625 -5 4 C-7.8125 3.75 -7.8125 3.75 -10 3 C-6.88378718 -0.11621282 -4.21175599 -0.11383124 0 0 Z " fill="#6E6F75" transform="translate(117,86)"/>
<path d="M0 0 C1.32 0 2.64 0 4 0 C3.67 1.65 3.34 3.3 3 5 C2.01 5 1.02 5 0 5 C0 3.35 0 1.7 0 0 Z " fill="#BAEFFA" transform="translate(282,67)"/>
<path d="M0 0 C0.99 0.33 1.98 0.66 3 1 C1.35 2.98 -0.3 4.96 -2 7 C-2.66 6.34 -3.32 5.68 -4 5 C-2.25 1.125 -2.25 1.125 0 0 Z " fill="#51B26B" transform="translate(97,51)"/>
<path d="M0 0 C2.97 0.495 2.97 0.495 6 1 C5.34 1.66 4.68 2.32 4 3 C4 3.99 4 4.98 4 6 C2.62437146 4.71034824 1.29233607 3.37310707 0 2 C0 1.34 0 0.68 0 0 Z " fill="#292B33" transform="translate(77,90)"/>
</svg>
